# xmcd
#
# Track frame offsets: 
#        150
#        13554
#        25643
#        28946
#        45414
#        64012
#        81192
#        92014
#        107080
#        127977
#        141633
#        156898
#
# Disc length: 2291 seconds
#
# Revision: 0
# Processed by: cddbd v1.5.2PL0 Copyright (c) Steve Scherf et al.
# Submitted via: ExactAudioCopy v0.99pb3
#
DISCID=9508f10c
DTITLE=Matt King - Rube
DYEAR=2008
DGENRE=Country
TTITLE0=Shanty Town
TTITLE1=Cursing the Ohio
TTITLE2=Prelude to Apathy
TTITLE3=American Dream
TTITLE4=The Mountain
TTITLE5=Graveyard Shift
TTITLE6=Silvertone
TTITLE7=Rabbit's Foot
TTITLE8=Eden's Apple
TTITLE9=Hell's Kitchen
TTITLE10=Bristol
TTITLE11=Waiting at the Bottom
EXTD=
EXTT0=
EXTT1=
EXTT2=
EXTT3=
EXTT4=
EXTT5=
EXTT6=
EXTT7=
EXTT8=
EXTT9=
EXTT10=
EXTT11=
PLAYORDER=
